<svg version="1.2" xmlns="http://www.w3.org/2000/svg" viewBox="0 0 3756 1356" width="3756" height="1356">
	<title>مشروع جديد</title>
	<style>
		.s0 { fill: #115f66 } 
	</style>
	<g id="مجلد 1">
		<path id="KFUPM_Wordmark" class="s0" d="m1356.1 3.5l-250.8 238.1 199.9 344.5h-193.8l-131.5-234-72.5 67.1-14.5 166.9h-164.3l51-582.6h164.3l-20.2 230.7 233.8-230.7h198.7zm49.2 0l-51 582.6h164.3l18.2-207.6h263.8l12-137.5h-263.8l8-92h281l12.6-145.6h-445.2zm530 534.2c44.6 40.9 105.8 61.4 183.5 61.4q119.1 0 196.8-60.5c51.1-40.3 80.1-99 86.8-175.9l31.5-359.2h-164.3l-31.6 360.8q-3.9 45.9-31.9 70.4c-18.7 16.4-43.7 24.5-74.9 24.5-31.2 0-54.6-8.1-70.5-24.5-15.8-16.3-22.3-39.8-19.6-70.4l31.5-360.8h-164.2l-31.5 359.2c-6.6 75.9 13 134.2 58.6 175.2m1494.1-313.5c-19.1 56.7-32.7 98.5-40.4 125.2q-4.8-40.1-18.7-125.2l-36.5-220.9h-251.4l-51 582.6h156l14.5-165.3c9.4-106.9 15.6-197.8 18.9-272.5 7.8 48 15.6 91.1 23.2 129.3l57.6 308.5h133l111.7-308.5c14.3-38.2 29.5-81.3 45.7-129.3-9.7 74.7-19.4 165.6-28.8 272.5l-14.4 165.3h156l51-582.6h-251.4l-75.2 220.9zm-478.1-170.7c36.5 33.5 52 79.3 46.5 137.3-5.4 57.9-29.6 103.7-72.5 137.2-42.9 33.5-99.3 50.2-169.5 50.2h-107.4l-18.1 207.7h-164.3l51-582.6h164.2 110.1c70.2 0 123.5 16.7 160 50.2zm-116.8 137.3c1.9-19.7-3.2-34.7-15.1-45.1-11.9-10.3-29.3-15.5-52.3-15.5h-96.8l-10.5 121.1h96c23 0 41.4-5.2 55.3-15.5 13.9-10.3 21.7-25.4 23.6-45"/>
		<path id="KFUPM_Iconmark" class="s0" d="m558 149.2l-121-121c-15.9-15.8-37.4-24.8-60-24.8h-171.1c-22.5 0-44 8.9-60 24.8l-121 121c-15.9 15.9-24.9 37.5-24.9 60v171.2c0 22.4 8.9 44 24.9 60l121 121c15.8 15.8 37.4 24.8 60 24.8h171.1c22.4 0 44-8.9 60-24.8l121-121c15.8-15.9 24.9-37.5 24.9-60v-171.2c0-22.4-8.9-44-24.9-60zm-404.8 23.9l38.8-23.9 16.2 116.9-30.4 16.5-24.7-109.4zm28 126.9l29.1-14.5 8.4 93.1-24.7 8.4c0 0-12.6-87-12.8-87zm14.9 103.6l23.7-6.6 4.1 80.5-20.5 2.8c0 0-7.5-76.7-7.3-76.7zm8.6 156.5l-0.4-64.4 20.2-1.7 0.9 66.1zm9.1-419.8l64.2-10.6 1.5 122.4-51 7.5c0 0-14.7-119.5-14.7-119.3zm16.6 139.1l49.4-4.4 1.1 96.3-43.6 3.6c0 0-6.9-95.6-6.9-95.5zm50.8 111.1l1 83.2-40.9 2.3-2.9-82.3c0 0 42.9-3.2 42.8-3.2zm-40.2 169.6l0.5-66.9 40.8-1.6 0.3 68.5zm59.3 0l0.3-68.5 40.8 1.6 0.5 66.9zm41.3-84.1l-40.9-2.3 1-83.2 42.8 3.1c0 0-2.9 82.3-2.9 82.4zm3.9-101.1l-43.5-3.6 1.1-96.3 49.4 4.4-7 95.7zm-42.1-122.7l1.5-122.4 64.2 10.4-14.6 119.5c0 0-51-7.5-51.1-7.5zm74.8 307.9h-20.7l0.8-66.1 20.2 1.6c0 0-0.4 64.5-0.3 64.5zm1.3-80l-20.4-2.8 4-80.5 23.7 6.6-7.4 76.7zm9.5-93.2l-24.6-8.4 8.3-93.1 29.1 14.5c0 0-12.7 87-12.8 87zm16.1-104.4l-30.3-16.5 16.1-116.8 38.8 23.8-24.8 109.4z"/>
		<path id="KFUPM_En" class="s0" d="m122.9 1186.3l-53 52.4 53 76.4h-29l-41.3-60-20.3 19.6v40.4h-24.3v-128.8h24.3v60.8l60.3-60.8zm9.6 128.8v-93.4h22.9v93.4zm0.1-105.4v-21.3h22.4v21.3zm118.4 18.6c5.8 5.9 8.7 14.1 8.7 24.9v61.9h-22.8v-58.1c0-11.8-5.8-17.8-17.5-17.8-5.8 0-10.6 2.1-14.7 6.2-4.1 4.2-6.1 9.9-6.1 17.3v52.3h-22.8v-93.4h22v13.3c7.1-10.4 16.9-15.6 29.1-15.6q15.2 0 24 8.8zm96.6-6.6h22.1v90.2c0 12.6-4.1 22.5-12.1 29.8-7.9 7.2-19.4 10.9-34.1 10.9-13 0-23.2-2.9-30.7-8.7-7.3-5.8-11.4-13.7-12.2-23.8h22.5c1.1 10 8 15 20.8 15 7.5 0 13.2-1.9 17.1-5.9 4-3.8 5.9-9.5 5.9-16.8v-11.8c-6.8 9.2-16.3 13.9-28.6 13.9-12.3 0-22.8-4.4-30.5-13.2-7.8-8.5-11.6-20-11.6-34.4 0-14.3 3.8-26 11.6-34.5 7.6-8.6 17.7-13 30.3-13 12.5 0 22.9 4.9 29.4 15v-12.9zm-6.5 66.6c4.2-5 6.4-12.1 6.4-21.2 0-9-2.2-16.1-6.4-21.1-4.2-5.1-10.1-7.6-17.7-7.6-7.6 0-13.2 2.5-17.5 7.7q-6.5 7.6-6.5 21.3c0 9.1 2.2 15.9 6.5 20.9q6.4 7.6 17.5 7.6c7.3 0 13.4-2.5 17.7-7.6zm182.6-80.1h-66.5v30.4h60.5v20.9h-60.5v55.6h-24.4v-128.8h91v22zm72.3 106.9c-1.2-1.9-1.9-5.7-2.6-11.4-6.2 9-16.2 13.6-30 13.6-10.3 0-18.4-2.4-24.5-7.4-6.1-4.9-9.1-11.8-9.1-20.7 0-16.9 11.9-26.7 35.7-29.1l14.1-1.3c4.7-0.6 8.1-1.8 10.2-3.3 2-1.6 3-4.1 3-7.3 0-4-1.3-6.9-3.9-8.8-2.6-1.9-7-2.8-13.1-2.8-6.6 0-11.4 1.1-14.3 3.3-2.9 2.3-4.6 6.1-5.1 11.5h-22.4c1.2-21.1 15.3-31.8 41.9-31.8 26.7 0 38.9 9.4 38.9 28v49.8c0 8.2 1.2 14 3.8 17.7h-22.9zm-9.7-20c4.4-3.9 6.7-9.5 6.7-16.9v-8.5q-3.2 2.9-10.7 3.8l-12.3 1.4q-8.9 1.2-12.9 4.2c-2.5 2.2-3.9 5.2-3.9 9.1 0 4 1.4 7.1 4 9.3 2.7 2.3 6.6 3.3 11.7 3.3 7.1 0 12.9-1.9 17.4-5.7zm122.9-66.7c5.8 5.8 8.7 14 8.7 24.8v61.9h-22.8v-58.1c0-11.8-5.8-17.7-17.5-17.7-5.8 0-10.7 2-14.7 6.2-4.1 4.2-6.1 9.9-6.1 17.2v52.3h-22.8v-128.8h22.8v48c7.1-9.8 16.6-14.7 28.4-14.7q15.2 0 24 8.7zm95.9-42h22.8v128.8h-22.1v-13.1c-6.8 10.2-16.7 15.3-29.4 15.3-12.7 0-23.1-4.5-30.6-13.5q-11.4-13.3-11.4-35.4c0-14.7 3.8-26.7 11.4-35.6 7.4-8.8 17.5-13.2 30.6-13.2 13.1 0 22.1 4.8 28.8 14.3v-47.6zm-23.6 112.2c7.5 0 13.3-2.6 17.8-7.8 4.1-5.2 6.3-12.5 6.3-22.2 0-9.6-2.2-17-6.3-22.2-4.2-5.2-10.2-7.7-17.8-7.7-7.6 0-13.2 2.7-17.5 8.1-4.3 5.5-6.5 13-6.5 22.6 0 9.6 2.2 17 6.4 22 4.2 4.9 10 7.3 17.5 7.3zm122 5.8c-9.6-9-14.3-21.5-14.3-37.6v-80.3h24.3v80.4c0 9.8 2.6 17.1 7.6 22.2 5.1 5.1 12.3 7.6 21.9 7.6 9.5 0 16.8-2.5 21.8-7.6 5-5.1 7.6-12.4 7.6-22.2v-80.4h24.3v80.3c0 16.3-4.8 29-14.3 37.9q-14.3 13.3-39.6 13.3c-16.8 0-29.9-4.4-39.4-13.4zm188.5-76c5.8 5.8 8.7 14.1 8.7 24.9v61.9h-22.8v-58.1c0-11.8-5.8-17.8-17.5-17.8-5.9 0-10.7 2-14.7 6.2-4.1 4.2-6.1 9.9-6.1 17.3v52.2h-22.9v-93.3h22.1v13.3c7.1-10.4 16.9-15.6 29.1-15.6q15.2 0 23.9 8.7zm29.5 86.8v-93.4h22.8v93.4zm0.1-105.4v-21.3h22.5v21.3zm105.4 12h23.7l-34.7 93.4h-26.3l-34.5-93.4h24.3l9.1 25.2c4.1 13.1 9.1 29 14.5 47.5 4.5-14.9 9.4-30.8 14.6-47.7l9-25zm119 53.8h-69.8c0.9 8 3.3 14 7.5 18q6.3 6.1 16.8 6.1 15.6 0 21.3-13.3h21.8c-2.4 9.5-7.5 17.1-15.2 22.7q-11.6 8.4-28.2 8.4c-13.8 0-25.1-4.5-33.6-13.5-8.5-8.8-12.8-20.6-12.8-35.4 0-14.7 4.2-26.5 12.7-35.3 8.5-8.9 19.6-13.5 33.5-13.5 13.8 0 25.3 4.7 33.6 14 8.4 9.2 12.4 21.4 12.4 36.5 0 0 0 5.4 0 5.3zm-69.6-16h46.8c-1-6.8-3.6-12.3-7.6-16.2-4.1-3.9-9.4-6-15.9-6-13.3 0-21.2 7.4-23.3 22.2zm141.9-38.8v21h-5.8c-8.6 0-15.4 2.1-19.9 6.6-4.6 4.4-7 10.9-7 19.4v47.4h-22.8v-93.4h22v16.7c5.2-12.1 14.5-18.2 27.8-18.2 2 0 3.9 0 5.6 0.4zm6.5 64.7h22.2c0.6 5.8 2.5 9.9 5.7 12.3 3.1 2.4 8.2 3.7 15.1 3.7 12.3 0 18.3-3.7 18.3-11.2 0-3.4-1.2-6-3.9-7.7-2.6-1.8-7.3-3.3-14.3-4.6l-10.7-1.8c-20.4-3.4-30.5-12.8-30.5-28.1 0-8.8 3.4-15.8 10.1-20.7 6.7-5 16.2-7.5 28.5-7.5 26.7 0 40.4 10.5 41.3 31.7h-21.6c-0.2-5.6-2-9.5-5.2-11.8-3.2-2.3-8.1-3.5-14.5-3.5-10.9 0-16.2 3.7-16.2 10.9 0 3.2 1.2 5.6 3.6 7.3 2.4 1.8 6.3 3.1 11.9 4.1l11.8 1.8c11.3 2 19.5 5.3 24.7 9.7 5.2 4.5 7.8 10.7 7.8 18.7 0 9.4-3.6 16.6-11 21.7-7.2 5.1-17.3 7.6-30.5 7.6-27.3 0-41.5-10.8-42.6-32.2zm98.4 29.7v-93.4h22.8v93.4zm0.1-105.5v-21.3h22.5v21.3zm91.8 29.5h-18.4v50.5c0 3 0.8 5 2.5 6.3 1.6 1.3 4.3 1.8 8.2 1.8h7.7v17.4c-4.9 0.5-8.8 0.7-11.9 0.7-10.1 0-17.5-1.9-22.2-5.7-4.7-3.8-7-9.9-7-18.1v-52.8h-14.4v-17.4h14.4v-27.1h22.6v27.1h18.4v17.4zm76.5-17.4h23.8l-36 101c-3.8 10.6-8.6 17.9-14.4 21.9-6 4.1-14.5 6.1-25.7 6.1-3.6 0-7.1-0.1-9.9-0.5v-17.9h8.7q7.4 0 11.4-4.2c2.6-2.7 3.9-6.3 3.9-10.9 0-4.5-1.4-10.7-4.3-18.7l-27.1-76.8h24.6l7.6 23.4q8 24.9 14.8 52.1c3.7-13.6 8.6-31 15-51.9l7.6-23.5zm120.2 95.6c-14.2 0-25.6-4.5-34.3-13.5-8.8-8.7-13.2-20.7-13.2-35.4 0-14.7 4.4-26.6 13.2-35.4 8.6-8.8 20.1-13.4 34.3-13.4 14.3 0 25.7 4.4 34.4 13.2 8.6 8.7 13.1 20.7 13.1 35.6 0 15-4.3 26.5-13.1 35.4-8.6 8.9-20.1 13.5-34.4 13.5zm17.8-26.7c4.3-5.2 6.5-12.7 6.5-22.2 0-9.5-2.2-16.8-6.5-22.2-4.3-5.2-10.3-7.8-17.8-7.8-7.4 0-13.5 2.5-17.7 7.7-4.2 5.2-6.5 12.6-6.5 22.2 0 9.6 2.2 17 6.5 22.2 4.3 5.2 10.3 7.7 17.7 7.7 7.5 0 13.6-2.6 17.8-7.8zm84.4-86.8c-7.9 0-11.8 3.7-11.8 11.2v6.7h19.1v17.4h-19.1v76h-22.6v-76h-14.5v-17.4h14.5v-7.1c0-9 2.5-16.1 7.6-21.2 5.1-5.1 12.7-7.7 22.9-7.7 4.6 0 8.5 0.1 11.8 0.5v17.5h-7.9zm122.4-17.5c14.3 0 25.5 3.8 33.4 11.3 8 7.4 12.1 17.7 12.1 30.7 0 12.9-4.1 22.9-12.1 30.4-7.9 7.5-19.1 11.3-33.4 11.3h-32.3v45h-24.3v-128.7zm-1.2 62.6q10.7 0 16.4-5.3c3.8-3.5 5.7-8.7 5.7-15.5q0-10-5.7-15.6c-3.8-3.5-9.3-5.4-16.4-5.4h-31v41.7h31zm145.5 26.5h-69.7c0.9 8 3.3 14 7.5 18q6.2 6.1 16.7 6.1 15.6 0 21.3-13.3h21.8c-2.4 9.5-7.5 17.1-15.2 22.7q-11.6 8.4-28.2 8.4c-13.8 0-25.1-4.5-33.6-13.5-8.5-8.8-12.8-20.6-12.8-35.4 0-14.7 4.2-26.5 12.7-35.3 8.5-8.9 19.7-13.5 33.5-13.5 13.8 0 25.4 4.7 33.6 14 8.4 9.2 12.4 21.4 12.4 36.5 0 0 0 5.4 0 5.3zm-69.5-16h46.8c-1-6.8-3.5-12.3-7.6-16.2-4-3.9-9.4-6-15.8-6-13.4 0-21.2 7.4-23.4 22.2zm130.3-20.4h-18.4v50.5c0 3 0.8 5.1 2.4 6.3 1.7 1.3 4.3 1.8 8.3 1.8h7.7v17.4c-5 0.5-8.9 0.8-11.9 0.8-10.2 0-17.5-1.9-22.2-5.7-4.7-3.9-7-9.9-7-18.2v-52.8h-14.5v-17.3h14.5v-27.2h22.6v27.2h18.4v17.3zm71-18.3v20.9h-5.8c-8.7 0-15.4 2.1-19.9 6.6-4.6 4.4-7 10.9-7 19.4v47.4h-22.9v-93.3h22.1v16.6c5.2-12.1 14.5-18.2 27.8-18.2 2 0 3.9 0 5.6 0.4zm53.8 96.6c-14.3 0-25.7-4.5-34.4-13.5-8.8-8.7-13.2-20.7-13.2-35.4 0-14.7 4.4-26.6 13.2-35.4 8.6-8.9 20.1-13.4 34.4-13.4 14.2 0 25.6 4.4 34.3 13.2 8.7 8.7 13.1 20.7 13.1 35.6 0 15-4.3 26.5-13.1 35.4-8.6 8.9-20.1 13.5-34.3 13.5zm17.7-26.7c4.3-5.2 6.5-12.7 6.5-22.2 0-9.5-2.2-16.9-6.5-22.2-4.3-5.2-10.3-7.8-17.7-7.8-7.5 0-13.6 2.5-17.8 7.7-4.2 5.2-6.5 12.6-6.5 22.2 0 9.6 2.2 17 6.5 22.2 4.3 5.2 10.3 7.7 17.8 7.7 7.4 0 13.5-2.6 17.7-7.8zm46.1 24.4v-128.7h22.8v128.7zm131.4-39.5h-69.8c0.9 8 3.3 13.9 7.5 18q6.3 6.1 16.8 6.1 15.6 0 21.3-13.4h21.8c-2.4 9.6-7.5 17.2-15.2 22.8q-11.6 8.3-28.2 8.3c-13.8 0-25.1-4.4-33.6-13.4-8.5-8.9-12.8-20.7-12.8-35.4 0-14.7 4.2-26.5 12.7-35.4 8.5-8.9 19.6-13.4 33.5-13.4 13.8 0 25.3 4.6 33.6 13.9 8.3 9.3 12.4 21.4 12.4 36.5 0 0 0 5.5 0 5.4zm-69.6-16h46.8c-1-6.9-3.6-12.3-7.6-16.3-4.1-3.9-9.4-5.9-15.9-5.9-13.3 0-21.2 7.3-23.3 22.2zm145.2-37.8h22.8v93.3h-22v-13.5c-7.1 10.5-16.9 15.7-29.3 15.7-10.1 0-17.9-2.9-23.8-8.8-5.8-5.8-8.7-14-8.7-24.8v-61.9h22.8v58.1c0 11.8 5.9 17.7 17.5 17.7 5.9 0 10.7-2 14.7-6.2 4.1-4.2 6.1-9.9 6.1-17.2v-52.3zm173.8 6.9c5.7 5.9 8.6 14.3 8.6 24.7v61.6h-22.8v-58.1c0-11.7-5.3-17.7-16.1-17.7-5.8 0-10.4 2-14 6.2-3.5 4.2-5.3 10.3-5.3 18.1v51.4h-22.6v-58.1c0-11.8-5.4-17.7-16.2-17.7-5.7 0-10.3 2-13.8 6.2-3.6 4.2-5.4 10.3-5.4 18.1v51.4h-22.8v-93.4h22.1v13.4c6.3-10.5 15.2-15.7 26.5-15.7 14.2 0 23.8 5.9 28.9 17.4 7-11.5 16.6-17.4 28.9-17.4 10.3 0 18.3 3.1 24 9.1zm186.5 86.5h-28.6l-9.4-10.7c-10.9 9-23.8 13.6-38.5 13.6-13.6 0-24.4-3.6-32.2-10.7-8-7-12-16-12-26.9 0-8.2 2.3-15.2 6.8-21.1 4.5-6 11.5-11.3 21.1-16.2-5-5.8-8.6-10.9-10.7-15.2-2.2-4.3-3.2-8.9-3.2-13.6 0-8.7 3.3-16.1 9.8-22 6.3-6 15.2-8.9 26.3-8.9 10.7 0 19.3 2.7 25.9 8.1 6.7 5.5 10.2 12.7 10.2 21.7 0 13.6-8.9 25-26.5 34.1l22.4 25c2.7-6.5 4.1-13.4 4.3-20.7h20.9c-0.5 13.4-4 25.5-10.7 36.6l24.1 26.7zm-50.8-25.1l-30.2-33.6c-10.5 5.8-15.7 13.2-15.7 22.2q0 8.4 6.1 14.1c4.1 3.8 9.5 5.8 16.1 5.8 8.8 0 16.8-2.8 23.7-8.5zm-28.8-84.7c-2.6 2.4-3.9 5.4-3.9 9.1 0 5.3 3.7 12.1 11 20.1l0.4 0.3c11.1-6 16.6-12.9 16.6-20.4 0-3.7-1.2-6.6-3.9-9-2.7-2.4-6-3.7-10.1-3.7-4.2 0-7.3 1.2-10.1 3.6zm235.1-18.9h35.4v128.7h-23.4v-39.2c0-24.1 0.3-45.4 0.8-63.8-2.7 9-6 18.9-9.8 29.7l-26 73.5h-20l-26.3-73.5c-4.5-13.4-7.7-23.1-9.6-29.3 0.5 18.3 0.7 39.5 0.7 63.4v39.2h-23.4v-128.7h35.4l22.2 62.5c1.4 4.2 5 15.9 11 34.9 3.8-13.3 7.6-25.5 11.4-36.1zm56.2 128.7v-93.4h22.8v93.4zm0.2-105.4v-21.3h22.4v21.3zm118.4 18.6c5.8 5.9 8.7 14.1 8.7 24.9v61.9h-22.8v-58.1c0-11.8-5.9-17.8-17.5-17.8-5.9 0-10.7 2.1-14.7 6.3-4.1 4.2-6.1 9.9-6.1 17.2v52.3h-22.9v-93.4h22.1v13.3c7.1-10.4 16.9-15.6 29.1-15.6q15.2 0 23.9 8.8zm117.5 47.2h-69.8c0.9 8 3.3 13.9 7.5 18q6.3 6.1 16.8 6.1 15.6 0 21.3-13.3h21.8c-2.4 9.5-7.5 17.1-15.2 22.7q-11.6 8.3-28.2 8.3c-13.8 0-25.1-4.4-33.6-13.4-8.5-8.9-12.8-20.7-12.8-35.4 0-14.7 4.2-26.5 12.7-35.4 8.5-8.9 19.6-13.4 33.5-13.4 13.8 0 25.3 4.7 33.6 13.9 8.3 9.3 12.4 21.5 12.4 36.5 0 0 0 5.5 0 5.4zm-69.6-16h46.8c-1.1-6.9-3.6-12.3-7.6-16.2-4.1-4-9.4-6-15.9-6-13.3 0-21.2 7.3-23.3 22.2zm141.9-38.8v20.9h-5.8c-8.7 0-15.4 2.2-20 6.6-4.5 4.4-6.9 10.9-6.9 19.4v47.4h-22.9v-93.3h22.1v16.6c5.2-12 14.5-18.1 27.8-18.1 2 0 3.9 0 5.6 0.3zm70.1 94.4c-1.1-1.9-1.9-5.7-2.5-11.4-6.2 9-16.3 13.6-30.1 13.6-10.3 0-18.4-2.4-24.5-7.4-6.1-4.9-9.1-11.8-9.1-20.7 0-17 11.9-26.7 35.8-29.1l14.1-1.3c4.6-0.6 8.1-1.8 10.1-3.3 2-1.6 3-4.1 3-7.4 0-3.9-1.2-6.8-3.9-8.7-2.5-1.9-7-2.8-13.1-2.8-6.5 0-11.4 1.1-14.3 3.3-2.9 2.3-4.6 6.1-5.1 11.5h-22.4c1.3-21.1 15.3-31.8 42-31.8 26.6 0 38.8 9.4 38.8 28v49.8c0 8.2 1.3 14 3.8 17.7h-22.8zm-9.8-20c4.4-4 6.7-9.5 6.7-16.9v-8.5q-3.2 2.9-10.6 3.8l-12.3 1.4q-9 1.2-13 4.2c-2.5 2.2-3.9 5.2-3.9 9.1 0 4 1.4 7.1 4 9.3 2.7 2.3 6.6 3.3 11.7 3.3 7.1 0 13-1.9 17.4-5.7zm47.7 20v-128.7h22.8v128.7zm37.4-29.7h22.2c0.7 5.9 2.6 9.9 5.7 12.3 3.2 2.5 8.3 3.7 15.1 3.7 12.3 0 18.4-3.7 18.4-11.1 0-3.5-1.2-6-3.9-7.8-2.7-1.8-7.4-3.3-14.3-4.5l-10.7-1.8c-20.4-3.4-30.6-12.8-30.6-28.2 0-8.7 3.5-15.7 10.2-20.7 6.7-4.9 16.2-7.4 28.5-7.4 26.7 0 40.4 10.5 41.3 31.7h-21.6c-0.3-5.6-2-9.5-5.2-11.8-3.3-2.4-8.1-3.6-14.5-3.6-10.9 0-16.2 3.7-16.2 10.9 0 3.2 1.3 5.6 3.7 7.4 2.4 1.8 6.3 3 11.9 4l11.8 1.8c11.3 2.1 19.5 5.4 24.7 9.8 5.1 4.4 7.8 10.6 7.8 18.6 0 9.4-3.7 16.7-10.9 21.7-7.3 5.1-17.4 7.6-30.6 7.6-27.3 0-41.5-10.7-42.6-32.2z"/>
		<path id="KFUPM_Ar" class="s0" d="m122.4 968h28.4v72.6c0 11.7-2.5 22.9-7.5 34.1q-7.4 16.6-24.3 27.8c-11.3 7.5-25.8 11.1-43.7 11.1-12.4 0-24.2-2.4-35.5-7.1-11.3-4.8-20.6-12.8-28.3-24.2q-11.4-17.1-11.4-45.6v-34h28.4v34c0 18.6 4.4 31.8 13 39.4q12.9 11.4 33.8 11.4c16.5 0 28.5-4.5 35.9-13.7 7.5-9.1 11.2-20.1 11.2-33.3 0 0 0-72.6 0-72.5zm-46.8 0c4.1 0 7.5-1.4 10.3-4q4.2-4 4.2-10.3c0-4.2-1.4-7.2-4.2-10-2.8-2.7-6.2-4.1-10.3-4.1-4.1 0-7.7 1.4-10.5 4.1-2.8 2.6-4.2 6.1-4.2 10 0 3.9 1.4 7.5 4.2 10.3 2.8 2.6 6.3 4 10.5 4zm208.9-5.2c-8.9-4.9-19-7.3-30.6-7.3h-55.6v26.1h54.1q9.3 0 16.4 3.8c4.7 2.5 8.5 6.2 11.3 11q4.2 7.3 4.2 17.2v13.3h-104.2v26.1h132.8v-39.3c0-11.3-2.5-21.3-7.6-30.2q-7.6-13.1-20.9-20.5zm471.1-85.4h28.7v175.4h-76.7c-0.8 2-1.6 3.9-2.8 5.9q-7.6 13.3-21.3 20.9c-9.1 4.9-19.6 7.5-31.3 7.5-11.7 0-22.4-2.6-31.6-7.5q-13.7-7.4-21.3-20.9c-1-2-1.9-3.9-2.8-5.9h-254.3v-175.4h28.4v149.3h79.5l-43.3-49 13.4-22.6h124.2l13.2 22.6-43.1 49h77c0.1-11.3 2.6-21.2 7.4-29.9q7.6-13.4 21.3-21c9.2-4.9 19.7-7.5 31.6-7.5 12 0 22.2 2.6 31.4 7.5q13.7 7.4 21.3 21c4.9 8.6 7.3 18.6 7.5 29.9h43.1v-149.3zm-273.1 147.9l36.9-44.4h-73.6zm201.3 2.4c0-10-2.9-18-8.9-24.1-5.8-6.1-13.5-9.1-23-9.1-9.6 0-17.2 3-23 9.1-5.8 6.1-8.7 14.1-8.7 24.1 0 10 2.9 17.9 8.7 24 5.8 6.1 13.6 9.2 23.2 9.2 9.7 0 16.9-3 22.8-9.2 5.9-6.2 8.9-14.2 8.9-24zm129.9 25.1h28.4v-175.2h-28.4zm117-97.6h44.1v98.2c0 19.4-5.3 34.2-16.1 44.5-10.7 10.3-25.6 15.5-44.8 15.5h-27.6v-26.2h26.2c11.8 0 20.3-2.9 25.7-8.9 5.2-5.7 7.8-14.3 7.8-25.6h-74.4v-39q0-17.7 6.8-30.9c4.6-8.7 11.3-15.6 20.2-20.4q13.3-7.2 31.9-7.2zm15.4 26h-15.5c-9.8 0-17.4 2.6-22.7 8.1q-8 8.2-8 22.5v14.9h46.1v-45.5zm233.2 59.3c0 13.1-3.6 24.3-11.1 33.4-7.5 9.1-19.4 13.7-35.9 13.7q-20.8 0-33.9-11.4c-8.6-7.6-12.9-20.8-12.9-39.5v-34h-28.4v34q0 28.6 11.4 45.7c7.6 11.4 17 19.5 28.3 24.2 11.2 4.9 23 7.1 35.5 7.1 17.7 0 32.3-3.6 43.6-11.1q16.9-11.3 24.4-27.8c4.9-11 7.4-22.5 7.4-34.1v-162.9h-28.4c0 0 0 162.9 0 162.7zm116.9-85.3h44.1v98.2c0 19.4-5.3 34.2-16.1 44.5-10.7 10.3-25.6 15.5-44.8 15.5h-27.6v-26.2h26.2c11.8 0 20.3-2.9 25.6-8.9 5.2-5.7 7.9-14.3 7.9-25.6h-74.5v-39q0-17.7 6.9-30.9c4.6-8.7 11.3-15.6 20.2-20.4q13.3-7.2 31.9-7.2zm15.5 26h-15.5c-9.7 0-17.4 2.6-22.7 8.1q-8 8.2-8 22.5v14.9h46.1v-45.5zm412.1 64.9c0 7.9-2 13.9-6.1 18-4.1 4.1-9.6 6.3-16.6 6.3-7 0-12.6-2.1-16.6-6.3-4.1-4-6.1-10.1-6.1-18v-168.6h-28.4v149.1h-51.5v-71.5h-28.4v71.5h-57.4v-71.5h-28.4v71.5h-60.2v-71.5h-28.5v98.9c0 8.2-0.7 14.7-2.4 19.4-1.6 4.8-4.4 8.2-8.3 10.4-4 2.2-9.3 3.3-16.3 3.3h-6.1v25.9h7.9c19.7 0 33.5-5.2 41.5-15.5 8.1-10.3 12.2-24.7 12.2-43.3v-1.5h226.3c0.6 7.9 2.6 14.9 6 20.7 4.2 7.4 10.2 13.1 17.9 17 7.8 3.9 16.6 6 26.9 6 10.3 0 19.3-2.1 26.9-6 7.7-3.9 13.7-9.6 17.9-17 4.2-7.4 6.3-16.4 6.3-26.8v-169.1h-28.4c0 0 0 168.6-0.1 168.6zm-244.3-110.8c4 0 7.5-1.4 10.3-4.1 2.8-2.7 4.2-6.1 4.2-10.1 0-4.1-1.4-7.3-4.2-10.1-2.8-2.6-6.3-4-10.3-4-4.1 0-7.7 1.4-10.5 4-2.8 2.7-4.2 6.1-4.2 10.1 0 3.9 1.4 7.4 4.2 10.1 2.8 2.7 6.3 4.1 10.5 4.1zm104.6 142.2c-4.1 0-7.7 1.4-10.5 4-2.8 2.7-4.2 6.1-4.2 10 0 4 1.4 7.5 4.2 10.3 2.8 2.7 6.4 4.1 10.5 4.1 4.2 0 7.5-1.4 10.3-4.1q4.2-4 4.2-10.3c0-4.1-1.4-7.2-4.2-10-2.8-2.6-6.2-4-10.3-4zm-66.6-142.2c4.1 0 7.5-1.4 10.3-4.1 2.8-2.7 4.2-6.1 4.2-10.1 0-4.1-1.4-7.3-4.2-10.1-2.8-2.6-6.2-4-10.3-4-4 0-7.7 1.4-10.5 4-2.8 2.7-4.2 6.1-4.2 10.1 0 3.9 1.4 7.4 4.2 10.1 2.8 2.7 6.4 4.1 10.5 4.1zm783.2-54.3c4 0 7.5-1.4 10.3-4.1 2.7-2.6 4.1-6.1 4.1-10.1 0-4.1-1.4-7.3-4.1-10.1-2.8-2.6-6.3-4-10.3-4-4.1 0-7.8 1.4-10.5 4-2.8 2.7-4.2 6.1-4.2 10.1 0 3.9 1.4 7.5 4.2 10.1 2.7 2.7 6.3 4.1 10.5 4.1zm-6.9 22.4h44.2l-0.4 149.4c-0.6 7.9-2.7 14.9-6.1 20.7-4.3 7.4-10.3 13.1-17.9 17-7.7 4-16.6 6-27 6-10.4 0-19.3-2-26.9-6-7.7-3.9-13.7-9.6-17.9-17-3.4-5.8-5.3-12.8-6.1-20.7h-123v11.8c0 10.6-2.2 19.6-6.3 27.2-4.4 7.6-10.3 13.4-18.2 17.4-7.8 3.9-17.1 5.9-27.6 5.9q-24.4 0-38.1-13.3c-9.2-8.9-13.8-21.2-13.8-37.2v-11.8h-178.1v-26.1h104.1v-13.3q0-9.9-4.1-17.1c-2.8-4.8-6.6-8.5-11.3-11.1q-7.1-3.8-16.4-3.8h-54.2v-26.1h55.7c11.4 0 21.6 2.4 30.5 7.4q13.3 7.4 20.9 20.5c5.1 8.8 7.6 18.8 7.6 30.2v13.3h45.3v-13.3c0-11 2.5-20.9 7.6-29.8 5.1-8.9 12.2-15.9 21.2-20.9 9-5.1 19.3-7.6 30.4-7.6h16.4v-22.6h28.4v22.6h16.4q16.9 0 30.4 7.6c9 5 16.1 12 21.2 20.9 5.2 8.9 7.7 18.8 7.7 29.8v13.3h75.8v23.1c0 11.8 8.8 20.6 22.5 20.6 11.3 0 22.9-5.5 22.9-24.1v-45.1h-74.7v-39.3c0-11.8 2.2-22.1 6.9-30.8 4.7-8.8 11.4-15.6 20.3-20.3 8.9-4.8 19.6-7.1 31.7-7.1zm-256.7 123.3h47.1v-45.6h-16.3c-9 0-16.3 3.1-22.2 9q-8.7 9-8.7 23.3c0 0 0 13.3 0.1 13.3zm47.3 26.1h-47.3v11.8c0 7.7 2 13.7 6.2 18 4.2 4.3 9.9 6.4 17.3 6.4 7.3 0 13.3-2.2 17.5-6.4 4.2-4.3 6.2-10.3 6.2-18 0 0 0-11.8 0.1-11.8zm75.5-39.4q0-14.3-8.8-23.3c-5.8-5.9-13-9-21.9-9h-16.4v45.6h47.1zm149.7-83.9h-15.8c-9.6 0-17.1 2.7-22.4 8.1q-8 8.2-8 22.5v15h46v-45.6zm603.7-52.1h28.7v175.4h-76.7c-0.8 2.1-1.6 4-2.7 5.9q-7.7 13.3-21.4 20.9c-9.1 4.9-19.6 7.5-31.3 7.5-11.7 0-22.4-2.6-31.6-7.5q-13.7-7.4-21.3-20.9c-1-1.9-1.9-3.8-2.8-5.9h-50.5c-0.6 7.9-2.6 14.9-6 20.7-4.4 7.4-10.3 13.1-17.9 17-7.8 3.9-16.6 6-27 6-10.5 0-19.3-2.1-26.9-6-7.8-3.9-13.7-9.6-17.9-17-3.5-5.8-5.4-12.8-6.1-20.7h-184.3v-26.1h184v-14.3c0-9.2-2.9-16.8-8.6-22.5-5.7-5.8-13.4-8.7-23.3-8.7h-132.3v-28.6l119.1-62.3 12.5 23.1-82.7 41.6h85.4c11.5 0 21.8 2.4 30.6 7.4q13.3 7.4 20.5 20.5c5 8.8 7.4 18.8 7.4 30.2v36.5c0.5 6.1 2.4 11 5.8 14.4 4.1 4 9.6 6.2 16.6 6.2 7 0 12.6-2 16.6-6.2 4.1-4.1 6.1-10.2 6.1-18v-168.6h28.4v149h45.5c0.1-11.3 2.6-21.1 7.4-29.9q7.6-13.3 21.3-20.9c9.2-5 19.7-7.5 31.6-7.5 12 0 22.2 2.5 31.4 7.5q13.7 7.4 21.3 20.9c4.9 8.6 7.3 18.6 7.5 29.9h43.1v-149.3zm-71.8 150.4c0-10.1-2.9-18.1-8.9-24.1-5.8-6.1-13.6-9.2-23.1-9.2-9.5 0-17.1 3.1-22.9 9.2-5.9 6-8.8 14-8.8 24.1 0 10 2.9 17.8 8.8 23.9 5.8 6.1 13.5 9.3 23.2 9.3 9.6 0 16.8-3.1 22.8-9.3 5.8-6.2 8.9-14.2 8.9-23.9zm129.9 25.1h28.4v-175.2h-28.4zm150.7-117.6c4 0 7.5-1.4 10.2-4 2.8-2.7 4.2-6.1 4.2-10.2 0-4.1-1.4-7.2-4.2-10-2.7-2.7-6.2-4.1-10.2-4.1-4.1 0-7.8 1.4-10.6 4.1-2.7 2.6-4.1 6.1-4.1 10 0 3.9 1.4 7.5 4.1 10.2 2.8 2.6 6.4 4 10.6 4zm38 0c4.1 0 7.5-1.4 10.3-4 2.8-2.7 4.2-6.1 4.2-10.2 0-4.1-1.4-7.2-4.2-10-2.8-2.7-6.2-4.1-10.3-4.1-4 0-7.7 1.4-10.5 4.1-2.8 2.6-4.2 6.1-4.2 10 0 3.9 1.4 7.5 4.2 10.2 2.8 2.6 6.3 4 10.5 4zm338.1 47.6q6.8 13.1 6.8 30.8v39.1h-427.1v-39.1q0-17.7 6.9-30.8c4.5-8.8 11.3-15.6 20.1-20.4q13.4-7.3 32-7.3h44.2v71.6h77.6l-43.4-49 13.4-22.6h124.2l13.2 22.6-43.1 49h78.6v-71.6h44.2q18.6 0 31.9 7.3c8.9 4.8 15.6 11.6 20.2 20.4zm-345.6-1.7h-15.5c-9.8 0-17.4 2.7-22.7 8.1q-8 8.2-8 22.5v15h46c0 0 0-45.6 0.2-45.6zm138.5 44.2l36.9-44.4h-73.6zm185.6-13.6q0-14.3-8-22.5c-5.3-5.4-12.8-8.1-22.7-8.1h-15.5v45.6h46.1v-15zm183.8 65.7c-4.4 0-7.8 1.4-10.6 4.1-2.8 2.6-4.2 6.1-4.2 10 0 3.9 1.4 7.5 4.2 10.3 2.8 2.6 6.4 4 10.6 4 4.1 0 7.4-1.4 10.2-4q4.2-4 4.2-10.3c0-4.2-1.4-7.2-4.2-10-2.8-2.7-6.2-4.1-10.2-4.1zm77-94.4c-5.1-8.7-12.1-15.6-20.8-20.5-8.9-5-19.1-7.4-30.6-7.4h-81.3v26.2h80.1q9.4 0 16.4 3.8c4.7 2.5 8.5 6.2 11.3 11q4.2 7.2 4.2 17.1v13.6h-153.6v-149.3h-28.4v175.4h210.4v-39.6c0-11.2-2.5-21.3-7.6-30.1z"/>
	</g>
</svg>